<?xml version="1.0" encoding="UTF-8" standalone="no"?>
<!DOCTYPE svg PUBLIC "-//W3C//DTD SVG 1.1//EN"
 "http://www.w3.org/Graphics/SVG/1.1/DTD/svg11.dtd">
<!-- Generated by graphviz version 2.38.0 (20140413.2041)
 -->
<!-- Title: %3 Pages: 1 -->
<svg width="134pt" height="188pt"
 viewBox="0.00 0.00 134.00 188.00" xmlns="http://www.w3.org/2000/svg" xmlns:xlink="http://www.w3.org/1999/xlink">
<g id="graph0" class="graph" transform="scale(1 1) rotate(0) translate(4 184)">
<title>%3</title>
<polygon fill="white" stroke="none" points="-4,4 -4,-184 130,-184 130,4 -4,4"/>
<!-- STAR_0 -->
<g id="node1" class="node"><title>STAR_0</title>
<ellipse fill="none" stroke="black" cx="63" cy="-162" rx="42.4939" ry="18"/>
<text text-anchor="middle" x="63" y="-158.3" font-family="Times,serif" font-size="14.00">STAR_0</text>
</g>
<!-- UNION_1 -->
<g id="node2" class="node"><title>UNION_1</title>
<ellipse fill="none" stroke="black" cx="63" cy="-90" rx="48.1917" ry="18"/>
<text text-anchor="middle" x="63" y="-86.3" font-family="Times,serif" font-size="14.00">UNION_1</text>
</g>
<!-- STAR_0&#45;&gt;UNION_1 -->
<g id="edge1" class="edge"><title>STAR_0&#45;&gt;UNION_1</title>
<path fill="none" stroke="black" d="M63,-143.697C63,-135.983 63,-126.712 63,-118.112"/>
<polygon fill="black" stroke="black" points="66.5001,-118.104 63,-108.104 59.5001,-118.104 66.5001,-118.104"/>
</g>
<!-- a_2 -->
<g id="node3" class="node"><title>a_2</title>
<ellipse fill="none" stroke="black" cx="27" cy="-18" rx="27" ry="18"/>
<text text-anchor="middle" x="27" y="-14.3" font-family="Times,serif" font-size="14.00">a_2</text>
</g>
<!-- UNION_1&#45;&gt;a_2 -->
<g id="edge2" class="edge"><title>UNION_1&#45;&gt;a_2</title>
<path fill="none" stroke="black" d="M54.2854,-72.055C50.0228,-63.7665 44.8034,-53.6178 40.0753,-44.4241"/>
<polygon fill="black" stroke="black" points="43.0725,-42.5992 35.3865,-35.307 36.8475,-45.8006 43.0725,-42.5992"/>
</g>
<!-- b_3 -->
<g id="node4" class="node"><title>b_3</title>
<ellipse fill="none" stroke="black" cx="99" cy="-18" rx="27" ry="18"/>
<text text-anchor="middle" x="99" y="-14.3" font-family="Times,serif" font-size="14.00">b_3</text>
</g>
<!-- UNION_1&#45;&gt;b_3 -->
<g id="edge3" class="edge"><title>UNION_1&#45;&gt;b_3</title>
<path fill="none" stroke="black" d="M71.7146,-72.055C75.9772,-63.7665 81.1966,-53.6178 85.9247,-44.4241"/>
<polygon fill="black" stroke="black" points="89.1525,-45.8006 90.6135,-35.307 82.9275,-42.5992 89.1525,-45.8006"/>
</g>
</g>
</svg>
