<?xml version="1.0" encoding="UTF-8" standalone="no"?>
<!DOCTYPE svg PUBLIC "-//W3C//DTD SVG 1.1//EN"
 "http://www.w3.org/Graphics/SVG/1.1/DTD/svg11.dtd">
<!-- Generated by graphviz version 2.38.0 (20140413.2041)
 -->
<!-- Title: %3 Pages: 1 -->
<svg width="455pt" height="222pt"
 viewBox="0.00 0.00 454.67 222.19" xmlns="http://www.w3.org/2000/svg" xmlns:xlink="http://www.w3.org/1999/xlink">
<g id="graph0" class="graph" transform="scale(1 1) rotate(0) translate(4 218.19)">
<title>%3</title>
<polygon fill="white" stroke="none" points="-4,4 -4,-218.19 450.67,-218.19 450.67,4 -4,4"/>
<!-- 0_2_4_6_7 -->
<g id="node1" class="node"><title>0_2_4_6_7</title>
<ellipse fill="none" stroke="black" cx="54.0456" cy="-54.0456" rx="50.0878" ry="50.0878"/>
<ellipse fill="none" stroke="black" cx="54.0456" cy="-54.0456" rx="54.0912" ry="54.0912"/>
<text text-anchor="middle" x="54.0456" y="-50.3456" font-family="Times,serif" font-size="14.00">0_2_4_6_7</text>
</g>
<!-- 0_1_2_4_5_7 -->
<g id="node2" class="node"><title>0_1_2_4_5_7</title>
<ellipse fill="none" stroke="black" cx="214.236" cy="-118.046" rx="59.2806" ry="59.2806"/>
<ellipse fill="none" stroke="black" cx="214.236" cy="-118.046" rx="63.2898" ry="63.2898"/>
<text text-anchor="middle" x="214.236" y="-114.346" font-family="Times,serif" font-size="14.00">0_1_2_4_5_7</text>
</g>
<!-- 0_2_4_6_7&#45;&gt;0_1_2_4_5_7 -->
<g id="edge1" class="edge"><title>0_2_4_6_7&#45;&gt;0_1_2_4_5_7</title>
<path fill="none" stroke="black" d="M104.664,-74.12C117.768,-79.4217 132.132,-85.2331 145.999,-90.8431"/>
<polygon fill="black" stroke="black" points="144.915,-94.1801 155.498,-94.6861 147.54,-87.6911 144.915,-94.1801"/>
<text text-anchor="middle" x="129.591" y="-87.8456" font-family="Times,serif" font-size="14.00">a</text>
</g>
<!-- 0_2_3_4_5_7 -->
<g id="node3" class="node"><title>0_2_3_4_5_7</title>
<ellipse fill="none" stroke="black" cx="383.525" cy="-80.0456" rx="59.2806" ry="59.2806"/>
<ellipse fill="none" stroke="black" cx="383.525" cy="-80.0456" rx="63.2898" ry="63.2898"/>
<text text-anchor="middle" x="383.525" y="-76.3456" font-family="Times,serif" font-size="14.00">0_2_3_4_5_7</text>
</g>
<!-- 0_2_4_6_7&#45;&gt;0_2_3_4_5_7 -->
<g id="edge2" class="edge"><title>0_2_4_6_7&#45;&gt;0_2_3_4_5_7</title>
<path fill="none" stroke="black" d="M106.353,-39.5293C151.764,-28.8558 219.603,-18.2436 277.381,-31.0456 291.359,-34.1429 305.683,-39.2989 319.082,-45.1313"/>
<polygon fill="black" stroke="black" points="317.642,-48.3212 328.195,-49.2602 320.531,-41.9451 317.642,-48.3212"/>
<text text-anchor="middle" x="214.236" y="-34.8456" font-family="Times,serif" font-size="14.00">b</text>
</g>
<!-- 0_1_2_4_5_7&#45;&gt;0_1_2_4_5_7 -->
<g id="edge3" class="edge"><title>0_1_2_4_5_7&#45;&gt;0_1_2_4_5_7</title>
<path fill="none" stroke="black" d="M199.294,-179.613C201.134,-191.1 206.115,-199.19 214.236,-199.19 219.692,-199.19 223.731,-195.538 226.352,-189.658"/>
<polygon fill="black" stroke="black" points="229.839,-190.187 229.177,-179.613 223.1,-188.291 229.839,-190.187"/>
<text text-anchor="middle" x="214.236" y="-202.99" font-family="Times,serif" font-size="14.00">a</text>
</g>
<!-- 0_1_2_4_5_7&#45;&gt;0_2_3_4_5_7 -->
<g id="edge4" class="edge"><title>0_1_2_4_5_7&#45;&gt;0_2_3_4_5_7</title>
<path fill="none" stroke="black" d="M276.104,-104.219C287.709,-101.583 299.947,-98.8033 311.828,-96.1046"/>
<polygon fill="black" stroke="black" points="312.726,-99.4898 321.702,-93.8616 311.175,-92.6637 312.726,-99.4898"/>
<text text-anchor="middle" x="298.881" y="-102.846" font-family="Times,serif" font-size="14.00">b</text>
</g>
<!-- 0_2_3_4_5_7&#45;&gt;0_1_2_4_5_7 -->
<g id="edge5" class="edge"><title>0_2_3_4_5_7&#45;&gt;0_1_2_4_5_7</title>
<path fill="none" stroke="black" d="M320.265,-76.6949C311.836,-77.2146 303.351,-78.2517 295.381,-80.0456 290.123,-81.229 284.804,-82.7991 279.54,-84.628"/>
<polygon fill="black" stroke="black" points="278.269,-81.3667 270.149,-88.1721 280.741,-87.9159 278.269,-81.3667"/>
<text text-anchor="middle" x="298.881" y="-83.8456" font-family="Times,serif" font-size="14.00">a</text>
</g>
<!-- 0_2_3_4_5_7&#45;&gt;0_2_3_4_5_7 -->
<g id="edge6" class="edge"><title>0_2_3_4_5_7&#45;&gt;0_2_3_4_5_7</title>
<path fill="none" stroke="black" d="M368.584,-141.613C370.424,-153.1 375.404,-161.19 383.525,-161.19 388.982,-161.19 393.02,-157.538 395.641,-151.658"/>
<polygon fill="black" stroke="black" points="399.128,-152.187 398.467,-141.613 392.39,-150.291 399.128,-152.187"/>
<text text-anchor="middle" x="383.525" y="-164.99" font-family="Times,serif" font-size="14.00">b</text>
</g>
</g>
</svg>
