<?xml version="1.0" encoding="UTF-8" standalone="no"?>
<!DOCTYPE svg PUBLIC "-//W3C//DTD SVG 1.1//EN"
 "http://www.w3.org/Graphics/SVG/1.1/DTD/svg11.dtd">
<!-- Generated by graphviz version 2.38.0 (20140413.2041)
 -->
<!-- Title: %3 Pages: 1 -->
<svg width="597pt" height="164pt"
 viewBox="0.00 0.00 597.00 164.26" xmlns="http://www.w3.org/2000/svg" xmlns:xlink="http://www.w3.org/1999/xlink">
<g id="graph0" class="graph" transform="scale(1 1) rotate(0) translate(4 160.26)">
<title>%3</title>
<polygon fill="white" stroke="none" points="-4,4 -4,-160.26 593,-160.26 593,4 -4,4"/>
<!-- 6 -->
<g id="node1" class="node"><title>6</title>
<ellipse fill="none" stroke="black" cx="27" cy="-108.26" rx="27" ry="18"/>
<text text-anchor="middle" x="27" y="-104.56" font-family="Times,serif" font-size="14.00">6</text>
</g>
<!-- 7 -->
<g id="node2" class="node"><title>7</title>
<ellipse fill="none" stroke="black" cx="567" cy="-109.26" rx="18" ry="18"/>
<ellipse fill="none" stroke="black" cx="567" cy="-109.26" rx="22" ry="22"/>
<text text-anchor="middle" x="567" y="-105.56" font-family="Times,serif" font-size="14.00">7</text>
</g>
<!-- 6&#45;&gt;7 -->
<g id="edge3" class="edge"><title>6&#45;&gt;7</title>
<path fill="none" stroke="black" d="M49.1315,-118.883C70.3005,-128.53 104.091,-141.26 135,-141.26 135,-141.26 135,-141.26 464,-141.26 489.838,-141.26 517.739,-131.796 537.818,-123.162"/>
<polygon fill="black" stroke="black" points="539.316,-126.326 547.004,-119.035 536.448,-119.941 539.316,-126.326"/>
<text text-anchor="middle" x="299.5" y="-145.06" font-family="Times,serif" font-size="14.00">eps</text>
</g>
<!-- 4 -->
<g id="node3" class="node"><title>4</title>
<ellipse fill="none" stroke="black" cx="136" cy="-62.2599" rx="27" ry="18"/>
<text text-anchor="middle" x="136" y="-58.5599" font-family="Times,serif" font-size="14.00">4</text>
</g>
<!-- 6&#45;&gt;4 -->
<g id="edge1" class="edge"><title>6&#45;&gt;4</title>
<path fill="none" stroke="black" d="M50.1705,-98.7287C65.5215,-92.1292 86.186,-83.2454 103.276,-75.8983"/>
<polygon fill="black" stroke="black" points="105.053,-78.944 112.858,-71.7789 102.289,-72.5131 105.053,-78.944"/>
<text text-anchor="middle" x="81.5" y="-91.0599" font-family="Times,serif" font-size="14.00">eps</text>
</g>
<!-- 0 -->
<g id="node5" class="node"><title>0</title>
<ellipse fill="none" stroke="black" cx="245" cy="-95.2599" rx="27" ry="18"/>
<text text-anchor="middle" x="245" y="-91.5599" font-family="Times,serif" font-size="14.00">0</text>
</g>
<!-- 4&#45;&gt;0 -->
<g id="edge5" class="edge"><title>4&#45;&gt;0</title>
<path fill="none" stroke="black" d="M160.747,-69.5837C175.431,-74.1124 194.5,-79.9935 210.682,-84.9842"/>
<polygon fill="black" stroke="black" points="209.732,-88.354 220.32,-87.9566 211.795,-81.6649 209.732,-88.354"/>
<text text-anchor="middle" x="190.5" y="-84.0599" font-family="Times,serif" font-size="14.00">eps</text>
</g>
<!-- 2 -->
<g id="node7" class="node"><title>2</title>
<ellipse fill="none" stroke="black" cx="245" cy="-41.2599" rx="27" ry="18"/>
<text text-anchor="middle" x="245" y="-37.5599" font-family="Times,serif" font-size="14.00">2</text>
</g>
<!-- 4&#45;&gt;2 -->
<g id="edge6" class="edge"><title>4&#45;&gt;2</title>
<path fill="none" stroke="black" d="M161.077,-55.1134C167.511,-53.3632 174.487,-51.6078 181,-50.2599 189.71,-48.4574 199.171,-46.8986 208.05,-45.6085"/>
<polygon fill="black" stroke="black" points="208.699,-49.0523 218.127,-44.2188 207.742,-42.1179 208.699,-49.0523"/>
<text text-anchor="middle" x="190.5" y="-54.0599" font-family="Times,serif" font-size="14.00">eps</text>
</g>
<!-- 5 -->
<g id="node4" class="node"><title>5</title>
<ellipse fill="none" stroke="black" cx="463" cy="-61.2599" rx="27" ry="18"/>
<text text-anchor="middle" x="463" y="-57.5599" font-family="Times,serif" font-size="14.00">5</text>
</g>
<!-- 5&#45;&gt;7 -->
<g id="edge2" class="edge"><title>5&#45;&gt;7</title>
<path fill="none" stroke="black" d="M485.632,-71.4395C500.786,-78.5709 521.188,-88.1719 537.644,-95.9158"/>
<polygon fill="black" stroke="black" points="536.269,-99.1368 546.807,-100.228 539.249,-92.8031 536.269,-99.1368"/>
<text text-anchor="middle" x="517.5" y="-93.0599" font-family="Times,serif" font-size="14.00">eps</text>
</g>
<!-- 5&#45;&gt;4 -->
<g id="edge4" class="edge"><title>5&#45;&gt;4</title>
<path fill="none" stroke="black" d="M444.88,-47.6965C429.262,-36.2497 405.021,-20.7242 381,-14.2599 311.044,4.56598 287.868,4.88711 218,-14.2599 197.705,-19.8216 177.339,-31.9278 162.104,-42.59"/>
<polygon fill="black" stroke="black" points="159.805,-39.9343 153.767,-48.6405 163.916,-45.5996 159.805,-39.9343"/>
<text text-anchor="middle" x="299.5" y="-4.05992" font-family="Times,serif" font-size="14.00">eps</text>
</g>
<!-- 1 -->
<g id="node6" class="node"><title>1</title>
<ellipse fill="none" stroke="black" cx="354" cy="-95.2599" rx="27" ry="18"/>
<text text-anchor="middle" x="354" y="-91.5599" font-family="Times,serif" font-size="14.00">1</text>
</g>
<!-- 0&#45;&gt;1 -->
<g id="edge9" class="edge"><title>0&#45;&gt;1</title>
<path fill="none" stroke="black" d="M272.175,-95.2599C285.518,-95.2599 301.96,-95.2599 316.523,-95.2599"/>
<polygon fill="black" stroke="black" points="316.724,-98.76 326.724,-95.2599 316.724,-91.76 316.724,-98.76"/>
<text text-anchor="middle" x="299.5" y="-99.0599" font-family="Times,serif" font-size="14.00">a</text>
</g>
<!-- 1&#45;&gt;5 -->
<g id="edge7" class="edge"><title>1&#45;&gt;5</title>
<path fill="none" stroke="black" d="M378.747,-87.7142C393.431,-83.0482 412.5,-76.989 428.682,-71.847"/>
<polygon fill="black" stroke="black" points="429.849,-75.1486 438.32,-68.7845 427.729,-68.4773 429.849,-75.1486"/>
<text text-anchor="middle" x="408.5" y="-84.0599" font-family="Times,serif" font-size="14.00">eps</text>
</g>
<!-- 3 -->
<g id="node8" class="node"><title>3</title>
<ellipse fill="none" stroke="black" cx="354" cy="-41.2599" rx="27" ry="18"/>
<text text-anchor="middle" x="354" y="-37.5599" font-family="Times,serif" font-size="14.00">3</text>
</g>
<!-- 2&#45;&gt;3 -->
<g id="edge10" class="edge"><title>2&#45;&gt;3</title>
<path fill="none" stroke="black" d="M272.175,-41.2599C285.518,-41.2599 301.96,-41.2599 316.523,-41.2599"/>
<polygon fill="black" stroke="black" points="316.724,-44.76 326.724,-41.2599 316.724,-37.76 316.724,-44.76"/>
<text text-anchor="middle" x="299.5" y="-45.0599" font-family="Times,serif" font-size="14.00">b</text>
</g>
<!-- 3&#45;&gt;5 -->
<g id="edge8" class="edge"><title>3&#45;&gt;5</title>
<path fill="none" stroke="black" d="M380.087,-45.949C393.939,-48.5382 411.37,-51.7964 426.589,-54.641"/>
<polygon fill="black" stroke="black" points="426.227,-58.1339 436.7,-56.5309 427.513,-51.2531 426.227,-58.1339"/>
<text text-anchor="middle" x="408.5" y="-57.0599" font-family="Times,serif" font-size="14.00">eps</text>
</g>
</g>
</svg>
